<?xml version="1.0" encoding="UTF-8"?>
<svg id="Layer_1"
    xmlns="http://www.w3.org/2000/svg" viewBox="0 0 200 200">
    <defs>
        <style>.cls-1{fill:#000;}</style>
    </defs>
    <path class="cls-1" d="m172.27,53c-3.32-3.59-23.69,9.78-46.17,30.15-2.6,2.43-5.11,4.87-7.52,7.3-.28.08-1.04.63-1.77,1.16-17.94,16.13-34.28,29.74-33.61,38.49-1.49-.57-3.01-.93-4.41-1.18-1.15-.17-2.2-.24-2.91-.22-.53-.1-1.13-.18-1.79-.22-.57,0-.9,0-.9,0-3.01.01-6.17,1.09-9.48,2.68-.63.42-2.2,1.3-1.65,1.25,2.53-1.39,3.57-1.72,6.37-2.58-.48.47-1.95.94-3.77,1.7-1.83.74-4.01,1.75-5.94,2.84l1.86-1.42c-1.56.85-3.21,1.74-4.89,2.62-3.99,2.33-8.17,4.78-12.54,6.6.82-.24,1.63-.5,2.43-.79-2.68,1.36-5.77,2.52-8.95,3.15-1.57.31-3.24.52-4.67.54-1.48.06-2.96-.04-4.29-.21-.25-.04-.49-.07-.74-.11l-.35-.05h-.09s-.06-.02-.02.01l.13.15c.34.4.67.79,1,1.17.33.37.65.73.97,1.07.31.34.68.6,1,.86-.5-.5-.95-1.14-1.45-1.8-.25-.33-.51-.66-.77-1-.02-.04-.09-.1-.08-.11l.16.03.32.05.63.1c1.86.26,3.72.2,5.11.1.83-.05,1.5-.11,1.97-.14.47-.01.74.04.74.18-.05.1-.42.24-1,.39-.29.08-.63.16-1.02.21-.32.05-.67.1-1.04.16-1.01.12-2.22.06-3.32-.14-.28-.06-.54-.11-.77-.16-.06,0-.19-.06-.19-.03l.08.13.17.28.38.58.42.61c.16.19.34.38.51.57.35.37.71.76,1.09,1.13.47.38.94.76,1.41,1.13,2.31,1.7,4.76,3.02,7.31,3.92,2.53.95,5.1,1.62,7.72,2.11,2.62.51,5.27.9,8.04,1.25-.37.26.24.64,1.49.97.02,0,.04,0,.05.01,1.12,0,1.92-.04,2.3-.04.57,0,2.56-.26,5.26-.8-.69.03-1.22.02-1.1-.09.12-.14,1-.37,3.21-.98-4.15,1.18-5.06.56-6.39.89.01-.19,1.23-.45,2.89-.84,1.67-.38,3.78-.88,5.57-1.4,1.79-.5,3.26-1.02,3.7-1.25.44-.24-.14-.17-2.49.27-2.72.48-5.83,1.29-8.71,1.83-.35.06-.7.12-1.05.18l-.49.07-.37.04c-.73.03-1.43.06-2.05.07-1.26,0-2.38-.07-3.26-.27-1.31-.53,1.04-.48,4.43-.67.24-.01.49-.02.73-.03.17,0,.14-.01.19-.02l.23-.03c.37-.04.82-.11,1.26-.18.89-.15,1.82-.32,2.73-.5,1.81-.37,3.52-.77,4.78-1.1,1.16-.28,3.2-.88,4.84-1.4,1.64-.52,2.9-.93,2.64-.58,3.88-1.96,7.28-3.78,9.71-6.02,1.22-1.11,2.09-2.34,2.51-3.71.22-.7.33-1.35.31-2.31-.01-.38-.08-.8-.15-1.2-.1-.41-.22-.83-.35-1.25-.25-.84-.51-1.68-.76-2.45.64-.04,1.36.01,2.05,0l1.07-.02h.53s.47-.08.47-.08l.94-.13.24-.03c.07-.01.09-.03.14-.04l.25-.08c.34-.1.67-.21,1.01-.36,1.35-.55,2.69-1.37,3.97-2.37,1.63-.96,2.65-1.56,3.79-2.24,1.14-.71,2.39-1.57,4.35-3.38-.92.31,1-1.5,3.4-3.83,2.4-2.34,5.3-5.19,6.54-6.64,6.18-6.31,13.44-13.72,18.41-17.97,2.47-2.35,6.01-6.23,3.01-3.6,3.53-3.37,7.22-5.76,9.5-9.23-3.88,3.79-4.09,3.7-6.65,6.04,4.86-5.75,11.74-12.24,16.15-17.41-.03-.01.15-.27.36-.55,4.76-4.56,8.83-8.76,11.74-12.18,1.46-1.71,2.61-3.23,3.41-4.56.07-.13.14-.26.21-.39.31-1.23.24-2.15-.27-2.7Zm-121.06,85.38l1.87-.86c-1.62,1.05-3.75,2.29-5.26,2.81-.78-.05,2.54-1.43,3.39-1.94Zm-6.72,5.77c-.24.25-1.2.83-3.18,1.52-2.13.54-4.41,1.06-6.81,1.36l-.91.1-.16.02h-.12c-.15.01-.31.03-.46.03-.3.01-.58.01-.82,0l-.23-.02c-.07-.02.02.05.05.08l.12.12.43.45c.31.25.52.48.78.65l.26.2.4.32c.27.21.51.45.8.62.56.38,1.11.75,1.66,1.12.52.4,1.12.68,1.66,1.03.56.32,1.07.7,1.63.96-1.16-.5-2.04-1.02-2.82-1.36-.74-.41-1.31-.75-1.8-1-1-.48-1.53-.82-2.09-1.09l-.2-.1-.13-.04c-.09-.03-.18-.06-.28-.11-.2-.08-.44-.21-.7-.42-.27-.21-.6-.49-.99-.86-.39-.36-.77-.9-1.22-1.49.37.26.55.29.64.23.02-.02.04-.04.06-.06.01-.01,0-.03.03-.04.06.02.12.03.18.05.21.06.46.13.73.2.9.22,1.69.34,2.26.3.06-.01.16-.04.19-.06.13-.03.43-.07.64-.11.46-.06.93-.14,1.4-.24.94-.16,1.87-.39,2.8-.61,1.83-.47,3.57-1.05,5-1.61.98-.36,1.45-.4,1.21-.15Zm10.79-5.76c-1.43.76-3.41,1.84-5.35,2.77-2.54,1.23-5.03,2.12-5.78,2.04,1.61-.71,4.24-1.94,6.47-3.03,2.24-1.09,4.11-1.97,4.35-1.79.23-.11.2,0,.3.01.45-.24.85-.45,1.17-.62-.81.53-1.06.63-1.17.62Zm19.86-7.75c-1.07-.05-2.1,0-3.08.09-.38-.16-.78-.33-1.19-.47,1.17-.21,2.35-.28,3.59-.24,2.37.21,1.12.27,0,.33-.56.04-1.07.1-1.09.15-.04.05.37.05,1.76.14Zm.94-1.16c-1.04-.17-1.7-.32-.5-.28,2.36.06,1.98.37,3.42.74-.45,0-1.87-.28-2.92-.46Zm9.65-2.11c0,.12-.13.54-.1,1-.01.32-.04.64-.07.98-.04.33-.08.68-.09,1.1-.02.39-.05.81-.07,1.27-.02.41-.03.86-.05,1.34-.23,0-.66-.2-1.04-.33-.4-.15-.81-.3-1.26-.45.36.11.73.21,1.1.32.18.06.37.11.56.17.09.03.2.07.28.08h.21c-.01-.48-.02-.96-.03-1.47,0-.53.02-1.09.03-1.69.06-.55.13-1.13.21-1.77l.06-.22.07-.19.09-.23c.06-.16.11-.32.19-.48-.04.2-.05.39-.08.59Zm8.44,6.24c-.28.14-.58.25-.9.35l-.24.08c-.09.03-.13.06-.34.08-.35.05-.7.1-1.05.15l-.53.07c-.19.02-.4.01-.59.02-.4,0-.8.02-1.2.02-.77.01-1.52-.02-2.19,0,.45,1.36.84,2.68,1.03,3.45.19.78.13,1.08-.05.67.01.36,0,.74-.04,1.1-.04-.56-.21-1.36-.59-2.39-.35-1.02-.76-2.19-1.2-3.42.97,0,1.98-.02,3-.03.52-.01,1.08,0,1.55-.03.45-.05.9-.11,1.34-.16l.33-.04c.1-.01.25-.02.26-.04l.26-.07c.17-.05.33-.09.49-.13.32-.1.61-.2.86-.27.99-.37,1.29-.31-.18.58Zm20.9-17.61c-3.84,3.81-7.53,8.16-11.67,11.53-3.34,2.31-6.16,4.4-4.79,2.78,5.77-4.37,13.83-12.45,18.55-16.88l-2.09,2.57Zm5.03-5.31l3.19-3.61.89-.63c-.91,1.1-2.51,2.91-4.07,4.24Z"/>
</svg>