<?xml version="1.0" encoding="UTF-8"?>
<svg id="Layer_1"
    xmlns="http://www.w3.org/2000/svg" viewBox="0 0 500 200">
    <defs>
        <style>.cls-1{fill:#231f20;}</style>
    </defs>
    <path d="m161.3,86.01h0s-24.29-36.43-24.29-36.43h-36.97c-13.08,0-23.99,10.4-24.16,23.48s10.55,24.13,23.81,24.13c4.49,0,8.73,1,12.54,2.8,9.99,4.71,16.89,14.89,16.87,26.67-.03,16.29-13.53,29.35-29.82,29.35H25V43.98h5.6v106.43h69.09c13.15,0,23.81-10.66,23.81-23.81s-10.66-23.81-23.81-23.81c-4.49,0-8.73-1-12.54-2.8-9.97-4.71-16.87-14.85-16.87-26.61,0-16.24,13.17-29.41,29.41-29.41h40.32l22.84,34.26c1.72,2.57,1.02,6.05-1.55,7.77Z"/>
    <path d="m207.97,145.92l-21.29-31.94h0c-2.57,1.72-3.27,5.19-1.55,7.77l22.85,34.27h0c2.04-3.06,2.04-7.04,0-10.1Z"/>
    <path class="cls-1" d="m207.97,54.08l-67.96,101.94h0c-2.04-3.06-2.04-7.04,0-10.1l67.96-101.94h0c2.04,3.06,2.04,7.04,0,10.1Z"/>
    <path d="m231.21,145.26c1.11,5.29,9.22,8.03,16.74,8.03,5.12,0,16.06-2.39,16.06-10.16,0-15.03-35.02-1.28-35.02-19.73,0-8.2,10.17-12.55,18.11-12.55,6.49,0,15.54,1.2,18.45,8.8.6,2.39-2.23,2.9-2.82,1.11-2.39-6.4-10.93-7.09-15.62-7.09-6.15,0-15.2,2.73-15.2,9.73,0,14.43,35.1,1.11,35.1,19.73,0,10.25-12.13,12.89-19.05,12.89s-17.85-1.96-19.47-10.25c-.69-2.22,2.48-2.82,2.73-.51Z"/>
    <path d="m296.48,114.43h-11.87v26.21c0,6.15,1.02,12.47,8.96,12.47,1.63,0,3.93-.59,5.12-1.28,1.79-.86,3.42,1.37,1.11,2.56-2.13,1.11-4.1,1.45-6.24,1.45-9.56,0-11.87-7.26-11.87-15.2v-26.21h-7.94c-2.3,0-2.3-2.73,0-2.73h7.94v-10.93c0-1.88,2.91-1.79,2.91,0v10.93h11.87c2.22,0,2.22,2.73,0,2.73Z"/>
    <path d="m327.84,153.11c8.54,0,19.13-7.34,19.13-19.9v-19.98c0-.94.51-1.54,1.45-1.54s1.54.6,1.54,1.54v40.48c0,.77-.6,1.45-1.54,1.45s-1.45-.6-1.45-1.54v-11.96c-2.73,9.99-11.87,14.35-18.79,14.35-9.73,0-19.55-6.49-19.55-18.7v-24.08c0-.94.51-1.54,1.45-1.54s1.54.6,1.54,1.54v24.08c0,9.22,7.69,15.8,16.23,15.8Z"/>
    <path d="m383.37,110.84c7.6,0,14,3.93,16.48,10.59v-20.58c0-.94.51-1.54,1.45-1.54s1.54.6,1.54,1.54v53.2c0,.94-.6,1.54-1.54,1.54s-1.45-.6-1.45-1.54v-8.46c-1.28,3.42-3.41,5.64-6.23,7.51-3.16,1.88-6.84,2.91-10.59,2.91-2.73,0-5.47-.51-8.11-1.62-9.22-3.76-13.84-11.96-13.58-21.95.26-8.62,4.87-16.82,12.98-19.98,2.82-1.2,5.81-1.62,9.05-1.62Zm16.48,26.47v-7.43c0-10.42-7.77-15.8-16.48-16.06-11.87-.17-18.7,8.45-19.05,18.53-.42,11.87,7.6,19.98,18.02,20.67,2.98.08,5.81-.6,8.62-1.88,5.64-2.73,8.88-7.6,8.88-13.84Z"/>
    <path d="m418.24,104.18c-.86,0-1.62-.43-1.62-1.37v-1.37c0-.94.76-1.45,1.62-1.45.77,0,1.54.51,1.54,1.45v1.37c0,.94-.76,1.37-1.54,1.37Zm0,7.52c.68,0,1.45.51,1.45,1.45v40.48c0,1.03-.77,1.54-1.45,1.54-.76,0-1.54-.51-1.54-1.54v-40.39c0-1.03.77-1.54,1.54-1.54Z"/>
    <path d="m435.85,148.42c-3.76-4.53-5.47-10.16-5.12-16.57.76-9.14,6.4-17.68,15.62-20.24,1.97-.51,4.19-.77,6.49-.77,2.13,0,4.27.26,6.4.77,9.22,2.56,14.94,11.1,15.71,20.24.35,6.41-1.36,12.04-5.12,16.57-4.19,4.95-10.25,7.6-16.99,7.6s-12.82-2.65-16.99-7.6Zm16.9-34.59c-1.88,0-3.67.25-5.37.68-13.24,3.5-17.85,21.61-9.14,32.02,3.5,4.19,8.88,6.57,14.6,6.57s11.27-2.39,14.77-6.57c8.71-10.42,3.93-28.52-9.3-32.02-1.71-.43-3.67-.68-5.56-.68Z"/>
</svg>