<?xml version="1.0" encoding="UTF-8"?>
<svg id="Layer_1"
    xmlns="http://www.w3.org/2000/svg" viewBox="0 0 500 200">
    <defs>
        <style>.cls-1{fill:#000;}</style>
    </defs>
    <path class="cls-1" d="m114.4,97.7c-4.08-1.93-8.45-2.9-13-2.9-5.43,0-10.52-2.13-14.33-5.99-3.81-3.86-5.87-8.98-5.8-14.42.15-10.95,9.33-19.86,20.47-19.86h33.82l23.74,35.62,2.09-1.39c3.59-2.4,4.57-7.27,2.17-10.86l-22.47-33.7h-39.69c-16.8,0-30.48,13.67-30.48,30.48,0,11.73,6.86,22.56,17.48,27.57,4.08,1.93,8.45,2.9,13,2.9,11.1,0,20.14,9.03,20.14,20.14s-9.03,20.14-20.14,20.14h-63.2V44.18h-10.34v111.57h73.15c16.99,0,30.84-13.64,30.87-30.42.02-11.77-6.84-22.61-17.48-27.63Z"/>
    <path class="cls-1" d="m184.83,109.79l-2.09,1.39c-1.74,1.16-2.92,2.93-3.33,4.98s0,4.14,1.16,5.88l23.82,35.72,2.09-3.13c2.51-3.76,2.51-8.62,0-12.38l-21.64-32.46Z"/>
    <path class="cls-1" d="m207.52,44.6l-3.13-4.69-67.76,101.64c-2.79,4.18-2.79,9.59,0,13.77l3.13,4.69,67.76-101.64c2.79-4.18,2.79-9.59,0-13.77Z"/>
    <path class="cls-1" d="m259.69,140.29c-1.57-.75-3.3-1.34-5.17-1.78-1.88-.44-3.76-.81-5.64-1.12s-3.6-.71-5.17-1.2c-1.57-.49-2.83-1.17-3.78-2.05-.95-.88-1.43-2.09-1.43-3.63,0-1.96.86-3.57,2.59-4.83,1.72-1.26,4.42-1.89,8.07-1.89,2.06,0,4.12.27,6.18.81,2.06.54,3.99,1.43,5.79,2.66l2.39-4.4c-1.7-1.13-3.86-2.05-6.49-2.74-2.63-.7-5.25-1.04-7.88-1.04-3.45,0-6.37.5-8.77,1.51s-4.21,2.38-5.45,4.13c-1.24,1.75-1.85,3.73-1.85,5.95s.48,4.17,1.43,5.56c.95,1.39,2.2,2.48,3.75,3.28,1.54.8,3.26,1.4,5.14,1.81,1.88.41,3.77.77,5.68,1.08,1.9.31,3.63.68,5.17,1.12,1.54.44,2.79,1.08,3.75,1.93.95.85,1.43,2.02,1.43,3.51,0,2.01-.85,3.62-2.55,4.83-1.7,1.21-4.48,1.81-8.34,1.81-2.83,0-5.54-.45-8.11-1.35-2.58-.9-4.69-1.97-6.33-3.21l-2.47,4.33c1.7,1.44,4.04,2.64,7.03,3.59,2.99.95,6.15,1.43,9.5,1.43,3.55,0,6.58-.48,9.08-1.43,2.5-.95,4.4-2.29,5.72-4.02,1.31-1.72,1.97-3.77,1.97-6.14,0-2.21-.48-4-1.43-5.37-.95-1.36-2.21-2.42-3.79-3.17Z"/>
    <path class="cls-1" d="m288.39,155.7c-2.27,0-4-.64-5.21-1.93-1.21-1.29-1.81-3.11-1.81-5.48v-24.25h12.36v-4.56h-12.36v-8.96h-5.48v8.96h-7.26v4.56h7.26v24.56c0,3.76,1.03,6.67,3.09,8.73,2.06,2.06,4.99,3.09,8.8,3.09,1.6,0,3.15-.23,4.67-.7s2.82-1.18,3.9-2.16l-1.93-3.94c-1.6,1.39-3.6,2.09-6.02,2.09Z"/>
    <path class="cls-1" d="m337.43,140.71c0,3.09-.55,5.74-1.66,7.96-1.11,2.21-2.7,3.9-4.79,5.06-2.08,1.16-4.54,1.74-7.38,1.74-3.86,0-6.86-1.09-9-3.28-2.14-2.19-3.21-5.45-3.21-9.77v-22.94h-5.48v23.56c0,3.86.71,7.08,2.12,9.65,1.42,2.58,3.41,4.51,5.99,5.79,2.57,1.29,5.59,1.93,9.04,1.93s6.76-.84,9.46-2.51c2.17-1.34,3.88-3.12,5.14-5.31v7.44h5.25v-40.55h-5.48v21.24Z"/>
    <path class="cls-1" d="m389.8,127.12c-1.56-2.41-3.53-4.29-5.91-5.64-2.81-1.6-5.99-2.39-9.54-2.39-3.86,0-7.33.86-10.39,2.59-3.06,1.73-5.47,4.13-7.22,7.22-1.75,3.09-2.63,6.69-2.63,10.81s.88,7.66,2.63,10.77c1.75,3.12,4.16,5.55,7.22,7.3,3.06,1.75,6.53,2.63,10.39,2.63,3.6,0,6.81-.81,9.62-2.43,2.47-1.43,4.49-3.43,6.06-5.99v8.04h5.25v-57.31h-5.48v24.41Zm-1.89,20.89c-1.31,2.39-3.12,4.25-5.41,5.56-2.29,1.31-4.88,1.97-7.76,1.97s-5.38-.66-7.65-1.97c-2.27-1.31-4.07-3.17-5.41-5.56-1.34-2.39-2.01-5.16-2.01-8.3s.67-5.97,2.01-8.34c1.34-2.37,3.14-4.21,5.41-5.52,2.26-1.31,4.81-1.97,7.65-1.97s5.47.66,7.76,1.97c2.29,1.31,4.09,3.15,5.41,5.52,1.31,2.37,1.97,5.15,1.97,8.34s-.66,5.91-1.97,8.3Z"/>
    <rect class="cls-1" x="410.58" y="119.47" width="5.48" height="40.55"/>
    <path class="cls-1" d="m413.36,102.71c-1.13,0-2.08.37-2.86,1.12-.77.75-1.16,1.66-1.16,2.74s.39,2.01,1.16,2.78,1.72,1.16,2.86,1.16,2.15-.39,2.9-1.16c.75-.77,1.12-1.72,1.12-2.86s-.39-1.98-1.16-2.7c-.77-.72-1.73-1.08-2.86-1.08Z"/>
    <path class="cls-1" d="m465.92,129.01c-1.78-3.06-4.22-5.48-7.34-7.26-3.12-1.78-6.68-2.67-10.7-2.67s-7.49.88-10.58,2.63c-3.09,1.75-5.54,4.17-7.34,7.26s-2.7,6.67-2.7,10.74.9,7.52,2.7,10.66c1.8,3.14,4.25,5.6,7.34,7.38,3.09,1.78,6.62,2.66,10.58,2.66s7.52-.89,10.66-2.66c3.14-1.78,5.6-4.22,7.38-7.34,1.78-3.11,2.67-6.68,2.67-10.7s-.89-7.63-2.67-10.7Zm-4.87,19c-1.31,2.39-3.1,4.25-5.37,5.56-2.27,1.31-4.87,1.97-7.8,1.97s-5.45-.66-7.69-1.97c-2.24-1.31-4.03-3.17-5.37-5.56-1.34-2.39-2.01-5.16-2.01-8.3s.67-5.97,2.01-8.34c1.34-2.37,3.14-4.21,5.41-5.52,2.26-1.31,4.84-1.97,7.72-1.97s5.46.66,7.72,1.97c2.27,1.31,4.05,3.15,5.37,5.52,1.31,2.37,1.97,5.15,1.97,8.34s-.66,5.91-1.97,8.3Z"/>
</svg>