<?xml version="1.0" encoding="UTF-8"?>
<svg id="Layer_1"
    xmlns="http://www.w3.org/2000/svg" viewBox="0 0 90 220">
    <defs>
        <style>.cls-1{fill:#000;}</style>
    </defs>
    <path class="cls-1" d="m75.33,195.87c1.02.58,1.26-.99,1.46-2.35l-2.7.27,1.23,2.08Z"/>
    <path class="cls-1" d="m73.46,190.72l-3.58-1.23,2.04,1.17c-.17,2.55-2.59,1.01-3.4.5,2.22,2.89,3.36-.27,4.94-.44Z"/>
    <path class="cls-1" d="m69.17,186.88c-.64-1.64-1.93-.42-2.07.48.7-.23,1.93.42,2.07-.48Z"/>
    <path class="cls-1" d="m43.63,93.43c-.55.26-1.04.66-1.41.36.17.72.48,1.01,1.41-.36Z"/>
    <path class="cls-1" d="m42.21,93.8c-.03-.14-.06-.29-.09-.45-.02.12-.05.21-.05.35.04.06.09.06.14.1Z"/>
    <path class="cls-1" d="m23.3,128.96c2.04,1.17,1.83,2.52,3.17,3.93l-1.39,1.89c1.54,1.48,2-.03,3.64.77-.34,2.25,2.54,5.14,2.86,5.96-.59.99-1.54-.05-2.2-.04,1.72,1.78,3.43.7,4.81,3.31l-.49.31c5.9,4.87,9.29,13.14,14.57,19.22-.15-.52.31-.61.59-.98,4.47,6.98,8.95,15.39,16.39,18.89-2.53-3.71-3.05-11.95-8.46-14.28.56-2.18-2.57-3.49-1-5.09-2.16-6.19-6.71-6.8-9.64-12.31-.07-.97,1.05-1.06,1.81-1.75l3.17,3.93-.64-3.06c1.43.73,2.29,3.86,4.14,3.31-4-2.79-5.6-9.74-9.71-11.86.39,1.79,1.91,3.5,2.72,5.44-.17,1.13.04,2.62-.9,3.01-5.38-3.97-6.37-9.06-10.03-14.11-.92-1.26-1.73-3.2-.96-3.89.78.74,1.16-.32,1.97.2-1.76-1.55-3.33,1.47-4.42-1.52l3.29-1.25c-3.85.58-1.2-3.73-4.15-4.74.87-1.36,2.27-.41,3.16,1.08-.36-2.02-2.25-1.25-2.92-2.66l3.33-.05c-3.29-.17-.89-2.91-.47-4.19-.7.23-2.31,2.06-3.11.12-.08-.97.8-.91,1.08-1.29-.7.23-2.24.18-2.95-1.01.77-.68,1.75.13,2.7-.26-.53-.89-1.11-1.58-.7-2.59-1.6-1.29-1.25.71-2.8.07-.4-1.54.44-1.81,1.52-1.98,1.09-.16,2.39-.28,3.23-.96.53.26,1,.53,1.43.79.45.32.73.4,1.2.88.85.79,1.57,1.51,2.18,1.84l-1.3-1.63-.65-.81-.49-.5c.57-.17.84-.75,1.2-1.13.35-.4.8-.6,1.56-.37.09-1.03-.38-1.76-1.22-2.67.09-.84,0-1.83.05-2.89-.52.11-.95.4-1.64.13-.06-1.34,1.24-.69,2.11-.52-.19-.5-.74-.97-1.28-1.63-.58-.6-1.26-1.18-1.7-1.94,2.96-1.92,2.25-2.79,5.65-3.95l-1.85-.81c2.31-.87-.25-2.55,1.75-3.76.43.11.53,1.03.65,1.79.26-1.88,2.27-.64,2.4-2.54l1.33,2.27c.58-1.26.93-3.37,2.28-1.83-.89-3.22,1.91-6.52,2.16-9.8l1.44,1c-1.13-2.37,2.8-5,1.2-7.39l.73.13-.6-3.84c.85-1.14,2.94.52,2.35.08,1.05-2.94,2.06-5.13,3.8-6.45-1.83-1.55-.84-4.7.12-7.11,7.15-10.27,11.51-23.07,14.6-34.54.73-1.57-.43-4.9-.41-7.34-1.75,2.06-.84,2.84-2.07,5.13-1.46,1.44-3.93.93-6.04,1.71l2.14.18c.16,3.08-1.79,1.11-1.01,3.89l-2.77-1.58c1.09,1.42-.96,2.41-2.04,2.69l1.62,1.64c-1.85.9-2.81,1.61-4.81,1.11l1.86.81c-1.41-.05-2.83,5.74-4.93,2.38.18.64.89,1.52.18,2.34l-1.85-.81c-.26,1.59-.72,3.27-1.93,3.12-.03-.95-.68-1.62-1.33-2.28-3.35,5.51,5.16,4.31,2.63,9.43l-1.12-.68.54,1.93-2.17.56c2.96,3.92-4.14,6.87-3.69,11.02-.32,1.37-3.49,1.69-4.45,4.1l1.85.8c-2.79.86-7.58,7.07-12.6,6.58.45,2.46.47.02,1.85.81.05,4.35-2.87,3.09-4.86,4.29-.22,2.54,1.52-1.22,2.26.61-3.04,2.45.81,3.75-2.47,7.03-1.21-.15-.15-1.38-.6-2.14.34,3.73-3.52,8.27-5.36,12.56-.26.3-.4.38-.76.88-.36.5-.72,1.02-1.09,1.54-.74,1.09-1.51,2.22-2.3,3.38-1.61,2.46-3.3,5.05-5.02,7.69,1.18,2.93,2.38,5.92,3.57,8.86.59,1.54,1.18,3.07,1.76,4.57.12.35.33.85.38,1.07l.15.62c.09.41.17.82.26,1.23l.7-.23c-.48,3.16,2.36,4.84,3,7.91l.27-1.8Z"/>
    <path class="cls-1" d="m57.25,153.16l1.29-1.22-2.35-1.99c-.7,1.66.64,1.64,1.06,3.22Z"/>
    <polygon class="cls-1" points="52.32 155.03 53.72 155.98 52.49 153.9 52.32 155.03"/>
    <polygon class="cls-1" points="38.13 121.7 38.06 122.16 41.85 126.31 38.13 121.7"/>
    <path class="cls-1" d="m45.07,94.43c.5.98-.26,1.58-.02,2.44l.43-2.64-.41.2Z"/>
    <path class="cls-1" d="m62.8,76.14c-2.27-2.31.93-1.67-2.15-1.87-.26,1.58,1.44,1,2.15,1.87Z"/>
    <path class="cls-1" d="m61.51,68.98c-.5.72-.32,1.37-.14,2.01,1.76-.36.37-1.15.14-2.01Z"/>
</svg>